<svg width="351" height="53" viewBox="0 0 351 53" fill="none" xmlns="http://www.w3.org/2000/svg">
<g clip-path="url(#clip0_80_2)">
<path d="M311.736 28.4455C312.116 28.8108 312.312 29.2884 312.312 29.8783C312.312 30.8335 312.031 31.6764 311.455 32.4068C310.893 33.1373 309.994 33.5306 308.785 33.5587C305.89 33.6008 303.29 33.3761 300.986 32.8985C298.428 38.3488 295.336 42.886 291.725 46.4961C288.113 50.1063 284.558 51.9043 281.045 51.9043C277.826 51.9043 275.409 50.1906 273.793 46.763C272.177 43.3355 271.264 38.7562 271.053 33.0109C268.861 39.3883 266.373 44.1222 263.605 47.2407C260.836 50.3591 257.899 51.9043 254.78 51.9043C251.266 51.9043 248.61 49.7129 246.812 45.3443C245.013 40.9756 244.113 35.0898 244.113 27.687C244.113 22.3069 244.591 16.393 245.547 9.94539C245.8 8.11926 246.264 6.84096 246.952 6.12456C247.627 5.40815 248.695 5.05697 250.17 5.05697C251.266 5.05697 252.124 5.29577 252.728 5.77338C253.332 6.25098 253.641 7.12191 253.641 8.41425C253.641 8.6671 253.599 9.15875 253.529 9.8892C252.433 17.3904 251.885 23.7819 251.885 29.0636C251.885 33.9661 252.306 37.7588 253.149 40.4278C253.993 43.0967 255.131 44.4312 256.55 44.4312C257.829 44.4312 259.375 43.0827 261.188 40.3997C263.001 37.7026 264.799 33.7132 266.598 28.4315C268.397 23.1497 269.915 16.8285 271.165 9.50993C271.46 7.82427 271.994 6.65835 272.781 6.02623C273.568 5.38006 274.636 5.07102 276 5.07102C277.138 5.07102 277.967 5.32387 278.501 5.81552C279.035 6.30717 279.302 7.05167 279.302 8.03497C279.302 8.62496 279.26 9.07447 279.19 9.4116C278.164 15.3816 277.658 21.3517 277.658 27.3218C277.658 31.3814 277.798 34.6263 278.065 37.0424C278.346 39.4585 278.866 41.2987 279.653 42.5629C280.44 43.8272 281.579 44.4593 283.082 44.4593C284.839 44.4593 286.792 43.1389 288.956 40.484C291.12 37.829 293.088 34.528 294.887 30.5666C292.652 29.176 290.966 27.3779 289.828 25.1585C288.689 22.939 288.127 20.3965 288.127 17.5028C288.127 14.6091 288.577 12.1648 289.476 10.1701C290.376 8.17545 291.598 6.68645 293.158 5.6891C294.718 4.70579 296.447 4.21414 298.344 4.21414C300.691 4.21414 302.546 5.05697 303.923 6.74263C305.3 8.4283 305.988 10.732 305.988 13.6679C305.988 17.8118 305.089 22.4052 303.29 27.4482C305.159 27.7713 307.352 27.9398 309.881 27.9398C310.724 27.9398 311.343 28.1224 311.722 28.4877L311.736 28.4455ZM297.149 25.0461C298.583 20.9443 299.285 17.559 299.285 14.89C299.285 13.3589 299.088 12.221 298.681 11.5046C298.273 10.7882 297.725 10.437 297.037 10.437C296.053 10.437 295.238 11.013 294.62 12.1648C294.001 13.3167 293.692 14.9602 293.692 17.0814C293.692 20.6634 294.844 23.3183 297.149 25.0461Z" fill="#3774EF"/>
<path d="M332.619 40.0345C332.9 40.4699 333.026 41.0739 333.026 41.8465C333.026 43.3074 332.675 44.4453 331.986 45.246C330.637 46.8895 328.712 48.4066 326.239 49.7972C323.765 51.1879 321.123 51.8903 318.299 51.8903C314.448 51.8903 311.469 50.8508 309.347 48.7578C307.225 46.6647 306.157 43.8131 306.157 40.189C306.157 37.6605 306.691 35.3146 307.745 33.1373C308.799 30.96 310.289 29.2322 312.172 27.9539C314.055 26.6756 316.191 26.0294 318.566 26.0294C320.688 26.0294 322.388 26.6615 323.681 27.9258C324.96 29.19 325.606 30.9038 325.606 33.0671C325.606 35.5955 324.707 37.7588 322.88 39.5709C321.053 41.383 318.004 42.8158 313.675 43.8834C314.589 45.569 316.331 46.4119 318.889 46.4119C320.533 46.4119 322.416 45.8359 324.524 44.6841C326.632 43.5322 328.459 42.0151 329.991 40.1468C330.427 39.6411 330.918 39.3742 331.48 39.3742C331.958 39.3742 332.338 39.599 332.605 40.0345H332.619ZM314.209 33.7835C313.282 35.3567 312.804 37.2672 312.804 39.5007V39.613C314.968 39.1073 316.669 38.3347 317.919 37.3093C319.17 36.2839 319.788 35.0898 319.788 33.7413C319.788 33.053 319.592 32.4911 319.212 32.0697C318.833 31.6483 318.313 31.4376 317.652 31.4376C316.303 31.4376 315.151 32.2242 314.223 33.7975L314.209 33.7835Z" fill="#3774EF"/>
<path d="M331.466 47.6761C329.794 44.8526 328.965 40.779 328.965 35.427C328.965 30.7071 329.555 25.5659 330.722 20.0172C331.888 14.4686 333.602 9.74874 335.865 5.84363C338.113 1.93851 340.798 0 343.917 0C345.604 0 346.953 0.716406 347.979 2.16327C349.004 3.61012 349.51 5.49245 349.51 7.79618C349.51 10.8023 348.948 13.7803 347.81 16.7442C346.672 19.7082 344.789 22.8267 342.147 26.0856C343.945 26.2261 345.505 26.8301 346.84 27.8977C348.175 28.9653 349.201 30.3279 349.918 32.0135C350.635 33.6992 350.986 35.5253 350.986 37.506C350.986 40.2452 350.438 42.7175 349.37 44.9229C348.288 47.1142 346.868 48.828 345.112 50.0641C343.355 51.2862 341.472 51.9043 339.448 51.9043C335.781 51.9043 333.125 50.4996 331.452 47.6761H331.466ZM342.835 43.9396C343.692 42.591 344.128 40.6104 344.128 38.0117C344.128 36.0029 343.763 34.4718 343.032 33.4463C342.301 32.4209 341.416 31.9152 340.39 31.9152C339.111 31.9152 338.029 32.5754 337.144 33.8958C336.258 35.2163 335.823 37.1407 335.823 39.6692C335.823 41.8606 336.188 43.462 336.919 44.4734C337.65 45.4848 338.563 45.9905 339.659 45.9905C340.91 45.9905 341.964 45.3162 342.821 43.9536L342.835 43.9396ZM342.02 18.0928C343.468 14.7074 344.184 11.7013 344.184 9.06043C344.184 7.89451 344.044 6.99549 343.777 6.36337C343.496 5.7453 343.13 5.43626 342.653 5.43626C341.922 5.43626 341.121 6.53194 340.264 8.70925C339.406 10.8866 338.605 13.8505 337.875 17.573C337.144 21.3096 336.596 25.3973 336.23 29.8222C338.647 25.3973 340.573 21.4781 342.02 18.0928Z" fill="#3774EF"/>
<path d="M30.4949 40.4559H13.4627L9.3733 52.0026H0L17.4256 5.61887H28.0496L43.8873 52.0167H34.1767L30.4808 40.4699L30.4949 40.4559ZM16.3014 32.5333H27.9794L22.4987 15.3817L16.2873 32.5333H16.3014Z" fill="#262B37"/>
<path d="M53.7103 50.7244C51.2651 49.2915 49.382 47.2688 48.0329 44.656C46.6838 42.0432 46.0233 38.9669 46.0233 35.4551C46.0233 31.9433 46.7119 28.9231 48.075 26.2823C49.4382 23.6414 51.3494 21.6046 53.8227 20.1437C56.282 18.6968 59.1066 17.9663 62.2685 17.9663C66.4984 17.9663 70.0117 19.2025 72.8363 21.6607C75.6469 24.119 77.277 27.5184 77.7267 31.8169H68.7469C68.5221 29.9626 67.8335 28.5158 66.6671 27.4622C65.5007 26.4087 64.0111 25.8749 62.2123 25.8749C60.006 25.8749 58.2775 26.7318 56.9987 28.4455C55.7198 30.1593 55.0875 32.4771 55.0875 35.3708C55.0875 38.2645 55.7198 40.6525 56.9987 42.3663C58.2775 44.08 59.9919 44.9369 62.142 44.9369C63.8565 44.9369 65.3039 44.4172 66.4984 43.3917C67.6929 42.3522 68.4377 40.8913 68.7469 39.009H77.6565C77.4316 41.8746 76.6306 44.3469 75.2534 46.44C73.8622 48.533 72.0493 50.1203 69.8009 51.2301C67.5524 52.3257 65.0229 52.8736 62.2123 52.8736C58.9942 52.8736 56.1695 52.1572 53.7243 50.7244H53.7103Z" fill="#262B37"/>
<path d="M89.8123 50.7244C87.367 49.2915 85.484 47.2688 84.1349 44.656C82.7858 42.0432 82.1253 38.9669 82.1253 35.4551C82.1253 31.9433 82.8139 28.9231 84.177 26.2823C85.5402 23.6414 87.4514 21.6046 89.9247 20.1437C92.3839 18.6968 95.2086 17.9663 98.3705 17.9663C102.6 17.9663 106.114 19.2025 108.938 21.6607C111.749 24.119 113.379 27.5184 113.829 31.8169H104.849C104.624 29.9626 103.935 28.5158 102.769 27.4622C101.603 26.4087 100.113 25.8749 98.3143 25.8749C96.108 25.8749 94.3795 26.7318 93.1006 28.4455C91.8218 30.1593 91.1894 32.4771 91.1894 35.3708C91.1894 38.2645 91.8218 40.6525 93.1006 42.3663C94.3795 44.08 96.0939 44.9369 98.244 44.9369C99.9585 44.9369 101.406 44.4172 102.6 43.3917C103.795 42.3522 104.54 40.8913 104.849 39.009H113.758C113.534 41.8746 112.733 44.3469 111.355 46.44C109.964 48.533 108.151 50.1203 105.903 51.2301C103.654 52.3257 101.125 52.8736 98.3143 52.8736C95.0962 52.8736 92.2715 52.1572 89.8263 50.7244H89.8123Z" fill="#262B37"/>
<path d="M150.844 38.2786H127.277C127.671 40.484 128.514 42.2118 129.821 43.4901C131.114 44.7684 132.885 45.4005 135.133 45.4005C136.847 45.4005 138.295 44.9931 139.461 44.1784C140.628 43.3636 141.358 42.3382 141.668 41.1161H150.184C150.099 43.4058 149.34 45.4426 147.935 47.2126C146.53 48.9966 144.661 50.3732 142.356 51.3705C140.052 52.3538 137.508 52.8595 134.725 52.8595C131.339 52.8595 128.388 52.1291 125.886 50.6541C123.385 49.1792 121.459 47.1423 120.139 44.5436C118.818 41.9449 118.157 38.9809 118.157 35.6377C118.157 32.2945 118.846 29.0917 120.237 26.4368C121.628 23.7819 123.567 21.7029 126.083 20.1998C128.598 18.7108 131.493 17.9523 134.796 17.9523C138.098 17.9523 140.895 18.6406 143.312 20.0032C145.729 21.3658 147.598 23.2902 148.891 25.7766C150.184 28.2629 150.844 31.1286 150.844 34.3875V38.2786ZM130.158 27.0549C128.865 28.1506 127.966 29.6957 127.488 31.6764H141.808C141.541 29.6957 140.853 28.1506 139.728 27.0549C138.604 25.9592 137.03 25.4114 135.007 25.4114C132.983 25.4114 131.451 25.9592 130.158 27.0549Z" fill="#262B37"/>
<path d="M160.063 49.8534C157.182 47.7604 155.692 44.7403 155.608 40.7789H163.998C164.166 42.6332 164.883 44.0519 166.148 45.0352C167.399 46.0185 169.043 46.5242 171.066 46.5242C172.865 46.5242 174.341 46.145 175.493 45.3724C176.631 44.5998 177.207 43.5322 177.207 42.1696C177.207 40.2733 175.844 39.1354 173.118 38.7421L165.726 37.6183C162.859 37.225 160.611 36.2417 158.953 34.6825C157.308 33.1232 156.479 31.0162 156.479 28.3753C156.479 25.1585 157.716 22.6159 160.203 20.7196C162.691 18.8232 166.176 17.882 170.673 17.882C175.17 17.882 178.627 18.8373 181.198 20.7477C183.77 22.6581 185.077 25.4675 185.133 29.1619H176.687C176.73 27.6729 176.252 26.493 175.24 25.6361C174.228 24.7792 172.823 24.3438 171.01 24.3438C169.338 24.3438 168.003 24.709 167.019 25.4394C166.035 26.1699 165.529 27.097 165.529 28.2489C165.529 29.7519 166.612 30.665 168.762 31.0162L174.833 31.9433C182.266 33.1373 185.991 36.4524 185.991 41.9027C185.991 45.2881 184.655 47.9852 181.999 49.9799C179.329 51.9746 175.732 52.9859 171.207 52.9859C166.682 52.9859 162.958 51.9465 160.077 49.8534H160.063Z" fill="#262B37"/>
<path d="M194.717 49.8534C191.836 47.7604 190.347 44.7403 190.263 40.7789H198.652C198.821 42.6332 199.538 44.0519 200.802 45.0352C202.053 46.0185 203.697 46.5242 205.721 46.5242C207.52 46.5242 208.995 46.145 210.147 45.3724C211.286 44.5998 211.862 43.5322 211.862 42.1696C211.862 40.2733 210.499 39.1354 207.773 38.7421L200.381 37.6183C197.514 37.225 195.265 36.2417 193.607 34.6825C191.963 33.1232 191.134 31.0162 191.134 28.3753C191.134 25.1585 192.371 22.6159 194.858 20.7196C197.345 18.8232 200.83 17.882 205.327 17.882C209.824 17.882 213.281 18.8373 215.853 20.7477C218.425 22.6581 219.732 25.4675 219.788 29.1619H211.342C211.384 27.6729 210.906 26.493 209.895 25.6361C208.883 24.7792 207.477 24.3438 205.665 24.3438C203.992 24.3438 202.657 24.709 201.674 25.4394C200.69 26.1699 200.184 27.097 200.184 28.2489C200.184 29.7519 201.266 30.665 203.416 31.0162L209.487 31.9433C216.921 33.1373 220.645 36.4524 220.645 41.9027C220.645 45.2881 219.31 47.9852 216.654 49.9799C213.984 51.9746 210.386 52.9859 205.861 52.9859C201.336 52.9859 197.612 51.9465 194.731 49.8534H194.717Z" fill="#262B37"/>
<path d="M235.808 13.991H227.025V5.61887H235.808V14.005V13.991ZM235.808 52.0026H227.025V18.8092H235.808V52.0026Z" fill="#262B37"/>
</g>
<defs>
<clipPath id="clip0_80_2">
<rect width="351" height="53" fill="white"/>
</clipPath>
</defs>
</svg>
